# xmcd
#
# Track frame offsets:
#	182
#	17267
#	45962
#	72492
#	87807
#	100947
#	124607
#	147707
#	172652
#	193095
#	206137
#	223327
#	244332
#	262685
#	277170
#	294522
#	304882
#	321617
#	333170
#
# Disc length: 4589 seconds
#
# Revision: 1
# Processed by: cddbd v1.4PL0 Copyright (c) Steve Scherf et al.
# Submitted via: audiograbber 1.81.03
#
DISCID=2311eb13
DTITLE=Various Artist - Chicago Blues Soundtrack
DYEAR=1997
DGENRE=Blues
TTITLE0=Buddy Guy and Junior Wells - We're Ready
TTITLE1=Buddy Guy and Junior Wells - First Time I Met The Blues
TTITLE2=Buddy Guy and Junior Wells - Country Girl
TTITLE3=Buddy Guy and Junior Wells - Hoodoo Man
TTITLE4=Buddy Guy and Junior Wells - We're Ready (2)
TTITLE5=Buddy Guy and Junior Wells - In My Younger Days
TTITLE6=Johnny Young - Driving Wheel
TTITLE7=Johnny Young - Walking Groundhog
TTITLE8=Muddy Waters - She's 19 Years Old
TTITLE9=Muddy Waters - Hoochie Cooche Man
TTITLE10=Muddy Waters - I Got My Mojo Working
TTITLE11=Mighty Joe Young - Why You Want To Hurt Me
TTITLE12=Koko Taylor - Wang Dang Doodle
TTITLE13=JB Hutto - Speak My Mind
TTITLE14=JB Hutto - Come On Back Home
TTITLE15=Johnny Lewis - You're Gonna Miss Me
TTITLE16=Johnny Lewis - Uncle Sam
TTITLE17=Johnny Lewis - Hobo Blues
TTITLE18=Johnny Lewis - I Hear You Knocking
EXTD=
EXTT0=
EXTT1=
EXTT2=
EXTT3=
EXTT4=
EXTT5=
EXTT6=
EXTT7=
EXTT8=
EXTT9=
EXTT10=
EXTT11=
EXTT12=
EXTT13=
EXTT14=
EXTT15=
EXTT16=
EXTT17=
EXTT18=
PLAYORDER=
